<svg width="1440" height="750" viewBox="0 0 1440 750" fill="none" xmlns="http://www.w3.org/2000/svg">
<g clip-path="url(#clip0_1_3941)">
<rect width="1440" height="750" fill="#F0F3F7"/>
<g opacity="0.8">
<ellipse opacity="0.25" cx="144.058" cy="631.54" rx="21.783" ry="21.766" transform="rotate(-7 144.058 631.54)" fill="#CFDAE6"/>
<ellipse opacity="0.6" cx="84.6327" cy="620.095" rx="5.21739" ry="5.21331" transform="rotate(-7 84.6327 620.095)" fill="#CFDAE6"/>
<ellipse opacity="0.45" cx="124.348" cy="679.759" rx="10.4348" ry="10.4266" transform="rotate(-7 124.348 679.759)" fill="#CFDAE6"/>
<path d="M144.841 632.151L197.316 608.979" stroke="#CFDAE6" stroke-width="1.73913" stroke-linecap="round" stroke-linejoin="round"/>
<path opacity="0.7" d="M122.058 628.228L86.4291 620.577" stroke="#E0B4B7" stroke-width="0.702679" stroke-linecap="round" stroke-linejoin="round" stroke-dasharray="1.41 2.11"/>
<path d="M144.535 632.543L128.795 670.548" stroke="#BACAD9" stroke-width="0.702679" stroke-linecap="round" stroke-linejoin="round" stroke-dasharray="1.41 2.11"/>
<ellipse opacity="0.45" cx="204.173" cy="604.845" rx="9.13483" ry="9.12768" transform="rotate(23 204.173 604.845)" fill="#CFDAE6"/>
<ellipse cx="202.39" cy="609.046" rx="9.13483" ry="4.56384" transform="rotate(-157 202.39 609.046)" fill="#CFDAE6"/>
</g>
<ellipse opacity="0.25" cx="207.547" cy="144.641" rx="29.1176" ry="29.1402" transform="rotate(-5 207.547 144.641)" fill="#CFDAE6"/>
<ellipse opacity="0.3" cx="207.547" cy="144.641" rx="21.5686" ry="21.5854" transform="rotate(-5 207.547 144.641)" fill="#CFDAE6"/>
<ellipse opacity="0.4" cx="366.379" cy="240.168" rx="23.7255" ry="23.7439" transform="rotate(-5 366.379 240.168)" stroke="#CFDAE6"/>
<ellipse opacity="0.5" cx="207.546" cy="144.641" rx="10.7843" ry="10.7927" transform="rotate(-5 207.546 144.641)" fill="#BACAD9"/>
<ellipse cx="202.175" cy="145.111" rx="5.39216" ry="10.7927" transform="rotate(-5 202.175 145.111)" fill="#BACAD9"/>
<g opacity="0.45">
<ellipse opacity="0.45" cx="366.379" cy="240.168" rx="6.47059" ry="6.47561" transform="rotate(-5 366.379 240.168)" fill="#E6A1A6"/>
<ellipse rx="3.23529" ry="6.47561" transform="matrix(-0.996195 0.0871557 0.0871557 0.996195 363.156 240.45)" fill="#E6A1A6"/>
</g>
<ellipse cx="405.639" cy="237.274" rx="1.61765" ry="1.6189" transform="rotate(-5 405.639 237.274)" fill="#CFDAE6"/>
<ellipse opacity="0.35" cx="370.161" cy="277.214" rx="1.61765" ry="1.6189" transform="rotate(-5 370.161 277.214)" fill="#E0B4B7"/>
<ellipse opacity="0.35" cx="364.349" cy="204.593" rx="2.15686" ry="2.15854" transform="rotate(-5 364.349 204.593)" fill="#E0B4B7"/>
<path opacity="0.8" d="M207.5 145.475L358.081 235.603" stroke="#CFDAE6"/>
<g opacity="0.8">
<ellipse cx="1147.11" cy="106.547" rx="11.1864" ry="11.2941" transform="rotate(-11 1147.11 106.547)" stroke="#CFDAE6" stroke-width="0.941176"/>
<ellipse opacity="0.45" cx="1147.08" cy="106.553" rx="8.47458" ry="8.55615" transform="rotate(-11 1147.08 106.553)" fill="#BACAD9"/>
<ellipse cx="1151.24" cy="105.744" rx="4.23729" ry="8.55615" transform="rotate(-11 1151.24 105.744)" fill="#BACAD9"/>
<path d="M1136.76 101.235L1104.52 87.0848" stroke="#CFDAE6" stroke-width="0.941176"/>
<ellipse cx="1101.83" cy="86.1055" rx="3.26271" ry="3.29412" transform="rotate(-11 1101.83 86.1055)" stroke="#CFDAE6" stroke-width="0.941176"/>
<ellipse cx="1112.42" cy="143.013" rx="2.79661" ry="2.82353" transform="rotate(-11 1112.42 143.013)" fill="#F7E1AD"/>
<path d="M1139.49 115.457L1114.38 141.215" stroke="#CFDAE6" stroke-width="0.941176"/>
</g>
<g opacity="0.85">
<circle cx="213.738" cy="260.738" r="17.3913" transform="rotate(-16 213.738 260.738)" stroke="#CFDAE6" stroke-width="0.8"/>
<path d="M209.289 245.324L209.665 245.216L209.557 244.84L209.181 244.948L209.289 245.324ZM198.43 255.853L198.057 255.734L197.938 256.106L198.31 256.226L198.43 255.853ZM209.505 246.076L209.612 246.452L209.989 246.344L209.881 245.968L209.505 246.076ZM199.175 256.093L199.055 256.465L199.428 256.585L199.548 256.212L199.175 256.093ZM218.133 276.168L217.757 276.276L217.865 276.652L218.241 276.544L218.133 276.168ZM229.212 264.893L229.589 264.995L229.691 264.617L229.313 264.515L229.212 264.893ZM217.917 275.415L217.81 275.039L217.433 275.147L217.541 275.523L217.917 275.415ZM228.456 264.69L228.557 264.312L228.179 264.211L228.078 264.589L228.456 264.69ZM209.181 244.948C203.704 246.518 199.677 250.69 198.057 255.734L198.803 255.973C200.346 251.168 204.181 247.195 209.397 245.7L209.181 244.948ZM209.881 245.968L209.665 245.216L208.913 245.432L209.128 246.184L209.881 245.968ZM199.548 256.212C201.014 251.645 204.658 247.873 209.612 246.452L209.397 245.7C204.181 247.195 200.346 251.168 198.803 255.973L199.548 256.212ZM198.31 256.226L199.055 256.465L199.295 255.72L198.55 255.481L198.31 256.226ZM218.241 276.544C223.993 274.895 228.144 270.378 229.589 264.995L228.834 264.792C227.456 269.921 223.502 274.221 218.025 275.792L218.241 276.544ZM217.541 275.523L217.757 276.276L218.509 276.06L218.294 275.308L217.541 275.523ZM228.078 264.589C226.769 269.463 223.012 273.548 217.81 275.039L218.025 275.792C223.502 274.221 227.456 269.921 228.834 264.792L228.078 264.589ZM229.313 264.515L228.557 264.312L228.354 265.068L229.11 265.271L229.313 264.515Z" fill="#DDE4EB"/>
<circle cx="208.944" cy="244.02" r="2.6087" transform="rotate(-16 208.944 244.02)" fill="#F0F2F5" stroke="#CFDAE6" stroke-width="0.869565"/>
<circle cx="230.455" cy="255.944" r="2.6087" transform="rotate(-16 230.455 255.944)" fill="#CFDAE6"/>
<circle cx="197.02" cy="265.532" r="2.6087" transform="rotate(-16 197.02 265.532)" fill="#F7E1AD"/>
<circle cx="218.532" cy="277.456" r="2.6087" transform="rotate(-16 218.532 277.456)" fill="#CFDAE6"/>
</g>
<g opacity="0.33">
<circle opacity="0.45" cx="1358.03" cy="505.355" r="11.6667" transform="rotate(-95 1358.03 505.355)" fill="#BACAD9"/>
<ellipse cx="1363.84" cy="504.847" rx="11.6667" ry="5.83333" transform="rotate(85 1363.84 504.847)" fill="#BACAD9"/>
<circle cx="1414.96" cy="477.744" r="5.83333" transform="rotate(-10 1414.96 477.744)" fill="#CFDAE6"/>
<path d="M1357.74 489.166L1356.77 417.03" stroke="#BACAD9" stroke-width="1.16667"/>
<path d="M1224.72 460.349L1343.49 500.649" stroke="#BACAD9" stroke-width="1.16667"/>
<path d="M1363.61 520.108L1413.49 624.298L1264.53 565.206L1344.69 513.828" stroke="#CFDAE6" stroke-width="1.16667"/>
<path opacity="0.6" d="M1375.73 497.097L1408.95 480.582" stroke="#E0B4B7" stroke-width="1.16667"/>
<path d="M1417.48 471.855L1442.37 420.785" stroke="#BACAD9" stroke-width="1.16667"/>
<path d="M1486.63 510.529L1420.64 479.705" stroke="#CFDAE6" stroke-width="1.16667"/>
<circle cx="1357.05" cy="407.99" r="8.75" transform="rotate(-10 1357.05 407.99)" fill="#C1D1E0"/>
<circle cx="1265.32" cy="566.325" r="5.25" transform="rotate(-10 1265.32 566.325)" fill="#C1D1E0"/>
<circle cx="1215.39" cy="457.847" r="8.75" transform="rotate(-10 1215.39 457.847)" fill="#D1DEED" fill-opacity="0.6"/>
<circle cx="1446.4" cy="414.153" r="5.83333" transform="rotate(-10 1446.4 414.153)" fill="#D1DEED" fill-opacity="0.6"/>
<circle cx="1414.33" cy="625.346" r="5.25" transform="rotate(-10 1414.33 625.346)" fill="#E0B4B7"/>
</g>
</g>
<defs>
<clipPath id="clip0_1_3941">
<rect width="1440" height="750" fill="white"/>
</clipPath>
</defs>
</svg>
