<svg width="129" height="26" viewBox="0 0 129 26" fill="none" xmlns="http://www.w3.org/2000/svg">
<path d="M7.60592 9.62082V0.511746C7.60592 0.230286 7.37697 0 7.07172 0H0.534195C0.228941 0 0 0.230286 0 0.511746V10.2605C0 10.542 0.254378 10.7978 0.534195 10.7722C2.77273 10.6955 4.98582 10.4908 7.14803 10.1326C7.42785 10.0814 7.60592 9.87669 7.60592 9.62082Z" fill="#BCDCF7"/>
<path d="M18.4933 6.32006C20.8082 5.27098 23.0212 4.04279 25.1071 2.66108C25.2598 2.55873 25.3361 2.4052 25.3361 2.22609V0.511746C25.3361 0.230286 25.1072 0 24.8019 0H18.2898C18.01 0 17.7556 0.230286 17.7556 0.511746V5.85949C17.7556 6.2433 18.1626 6.49917 18.4933 6.32006Z" fill="#BCDCF7"/>
<path d="M9.51388 9.54406C11.7524 9.03231 13.9655 8.36704 16.1277 7.52266C16.3312 7.4459 16.4584 7.2412 16.4584 7.0365V0.511746C16.4584 0.230286 16.2295 0 15.9242 0H9.41212C9.13231 0 8.87793 0.230286 8.87793 0.511746V9.03231C8.87793 9.39053 9.18318 9.62082 9.51388 9.54406Z" fill="#BCDCF7"/>
<path d="M0 12.5378V24.9732C0 25.2547 0.228941 25.485 0.534195 25.485H7.09716C7.37697 25.485 7.63135 25.2547 7.63135 24.9732V11.9237C7.63135 11.6166 7.35154 11.3608 7.02084 11.4119C4.85863 11.7702 2.69641 11.9749 0.508757 12.026C0.228941 12.0516 0 12.2563 0 12.5378Z" fill="white"/>
<path d="M17.7556 8.41832V24.9989C17.7556 25.2803 17.9846 25.5106 18.2898 25.5106H24.8528C25.1326 25.5106 25.387 25.2803 25.387 24.9989V5.06639C25.387 4.65699 24.9291 4.4267 24.573 4.6314C22.5125 5.88518 20.3503 6.98543 18.0863 7.95775C17.8828 8.03451 17.7556 8.21362 17.7556 8.41832Z" fill="white"/>
<path d="M8.87793 11.4119V24.9987C8.87793 25.2802 9.10687 25.5105 9.41212 25.5105H15.9751C16.2549 25.5105 16.5093 25.2802 16.5093 24.9987V9.544C16.5093 9.18577 16.1532 8.9299 15.797 9.05784C13.6857 9.82546 11.5235 10.4396 9.31037 10.9001C9.05599 10.9513 8.87793 11.156 8.87793 11.4119Z" fill="white"/>
<path d="M32.9929 21.3398V5.4757C32.9929 5.29659 33.1455 5.14307 33.3236 5.14307H44.4908C44.6689 5.14307 44.8215 5.29659 44.8215 5.4757V7.82973C44.8215 8.00884 44.6689 8.16237 44.4908 8.16237H36.427C36.249 8.16237 36.0963 8.31589 36.0963 8.495V12.3587C36.0963 12.5378 36.249 12.6913 36.427 12.6913H44.4908C44.6689 12.6913 44.8215 12.8448 44.8215 13.024V15.25C44.8215 15.4292 44.6689 15.5827 44.4908 15.5827H36.427C36.249 15.5827 36.0963 15.7362 36.0963 15.9153V21.3654C36.0963 21.5445 35.9437 21.698 35.7656 21.698H33.3236C33.1455 21.6469 32.9929 21.5189 32.9929 21.3398Z" fill="white"/>
<path d="M48.6372 10.3116V21.3142C48.6372 21.4933 48.7898 21.6468 48.9679 21.6468H51.1556C51.3336 21.6468 51.4862 21.4933 51.4862 21.3142V10.3116C51.4862 10.1325 51.3336 9.979 51.1556 9.979H48.9679C48.7898 9.979 48.6372 10.1069 48.6372 10.3116Z" fill="white"/>
<path d="M64.434 21.6468C64.2559 21.6468 64.1033 21.4932 64.1033 21.3141V15.557C64.1033 13.9962 63.3402 12.768 61.9157 12.4865C60.0587 12.1539 58.3544 13.6635 58.3544 15.5826V21.3141C58.3544 21.4932 58.2017 21.6468 58.0237 21.6468H55.8615C55.6834 21.6468 55.5308 21.4932 55.5308 21.3141V10.3116C55.5308 10.1325 55.6834 9.97896 55.8615 9.97896H57.7947C57.9728 9.97896 58.1 10.1069 58.1254 10.286L58.2017 10.9257C58.2272 11.1816 58.5324 11.3095 58.7359 11.156C59.7534 10.286 60.8218 9.82544 62.0683 9.82544C64.7901 9.82544 66.9778 11.8724 66.9778 15.5314V21.3141C66.9778 21.4932 66.8252 21.6468 66.6471 21.6468H64.434Z" fill="white"/>
<path d="M74.4896 5.42453V10.7979C74.4896 11.0537 74.7949 11.1817 74.9729 11.0026C75.8378 10.1838 77.3132 9.72319 78.3053 9.72319C81.6885 9.72319 84.2069 11.7958 84.2069 15.813C84.2069 19.6511 81.6377 21.9027 78.2544 21.9027C77.0334 21.9027 75.8124 21.5445 74.9221 20.5722C74.7694 20.3931 74.4642 20.4699 74.4387 20.7257L74.3624 21.391C74.337 21.5445 74.2352 21.6469 74.0826 21.6469H71.9458C71.7932 21.6469 71.666 21.5189 71.666 21.3654V5.42453C71.666 5.271 71.7932 5.14307 71.9458 5.14307H74.2352C74.3624 5.14307 74.4896 5.271 74.4896 5.42453ZM74.6677 15.813C74.6677 17.9111 76.2194 19.2417 78.0255 19.2417C79.857 19.2417 81.307 17.8599 81.307 15.813C81.307 13.7148 79.857 12.4099 78.0255 12.4099C76.2194 12.4354 74.6677 13.7916 74.6677 15.813Z" fill="white"/>
<path d="M97.842 10.0045H99.9534C100.131 10.0045 100.284 10.1581 100.284 10.3372V21.3141C100.284 21.4932 100.131 21.6468 99.9534 21.6468H97.8929C97.7148 21.6468 97.5877 21.5188 97.5622 21.3397L97.5113 20.8536C97.4859 20.5721 97.1298 20.4442 96.9263 20.6489C96.0868 21.5444 94.7132 21.9794 93.6702 21.9794C90.2361 22.005 87.7178 19.8812 87.7178 15.7873C87.7178 11.7701 90.3633 9.67191 93.7465 9.6975C94.9676 9.6975 96.1631 10.1581 96.9263 10.9257C97.1298 11.1304 97.4605 10.9769 97.4859 10.6954L97.5113 10.286C97.5368 10.1581 97.664 10.0045 97.842 10.0045ZM90.5923 15.8129C90.5923 18.1925 92.3475 19.5486 94.4588 19.3439C98.5797 18.9345 98.5797 12.7168 94.4588 12.333C92.3475 12.1283 90.5923 13.4332 90.5923 15.8129Z" fill="white"/>
<path d="M112.494 12.8449C112.367 12.9728 112.163 12.9984 112.036 12.896C111.273 12.2819 110.408 12.0772 109.416 12.0772C108.042 12.0772 107.305 12.5122 107.305 13.2287C107.305 13.9963 107.991 14.4057 109.467 14.508C111.655 14.6616 114.427 15.1477 114.427 18.2438C114.427 20.2908 112.748 22.0819 109.441 22.0819C107.686 22.0819 105.906 21.8004 104.278 20.1884C104.15 20.0861 104.15 19.907 104.252 19.7534L105.295 18.2438C105.397 18.0903 105.626 18.0647 105.778 18.1926C106.694 18.9858 108.322 19.5231 109.492 19.5487C110.561 19.5743 111.578 19.0114 111.578 18.167C111.578 17.3738 110.917 17.0412 109.289 16.9388C107.101 16.7853 104.506 15.9665 104.506 13.331C104.506 10.6444 107.279 9.69763 109.391 9.69763C111.069 9.69763 112.367 10.0047 113.639 11.0026C113.791 11.1305 113.817 11.3352 113.69 11.4887L112.494 12.8449Z" fill="white"/>
<path d="M120.244 16.862C120.041 16.862 119.888 17.0667 119.965 17.2458C120.321 18.474 121.516 19.344 123.348 19.344C124.314 19.344 125.535 19.0114 126.248 18.4484C126.375 18.3461 126.553 18.3461 126.655 18.474L128.054 19.8813C128.181 20.0093 128.181 20.214 128.054 20.3163C126.833 21.4421 124.95 21.9795 123.297 21.9795C119.303 21.9795 116.938 19.4975 116.938 15.7618C116.938 12.2307 119.329 9.672 123.093 9.672C126.884 9.672 129.3 11.9749 128.97 16.6062C128.97 16.7597 128.817 16.8876 128.664 16.8876H120.244V16.862ZM125.815 14.4824C126.019 14.4824 126.146 14.2777 126.095 14.0986C125.764 12.8448 124.671 12.2307 123.17 12.2307C121.771 12.2307 120.601 12.8448 120.066 14.073C119.99 14.2777 120.143 14.4824 120.346 14.4824H125.815Z" fill="white"/>
<path d="M48.6372 5.32222V7.95771C48.6372 8.06006 48.7135 8.16241 48.8407 8.16241H51.2827C51.3845 8.16241 51.4862 8.08565 51.4862 7.95771V4.04286C51.4862 3.88934 51.3082 3.78699 51.181 3.86375C50.4179 4.34991 49.6038 4.75931 48.7644 5.14311C48.6881 5.1687 48.6372 5.24546 48.6372 5.32222Z" fill="white"/>
</svg>
