<svg width="109" height="26" viewBox="0 0 109 26" fill="none" xmlns="http://www.w3.org/2000/svg">
<path d="M34.7773 8.77217H42.663V10.5841H36.8571V13.4315H42.1141V15.2434H36.8571V19.3562H34.7773V8.77217ZM45.9847 8.77217H48.0645V19.3562H45.9847V8.77217ZM52.0217 8.77217H53.8704L58.9253 15.9624V8.77217H60.9472V19.3562H59.0986L54.0437 12.166V19.3562H52.0217V8.77217ZM66.2332 19.3562C65.7999 19.3562 65.4533 19.2124 65.1644 18.9536C64.9045 18.6947 64.76 18.3496 64.76 17.9182V8.77217H69.9882C70.9414 8.77217 71.6924 9.00225 72.2701 9.46243C72.8479 9.92261 73.1367 10.5266 73.1367 11.3031V12.0509C73.1367 12.3961 73.05 12.7124 72.8767 13C72.7034 13.3164 72.4723 13.5465 72.1835 13.7478V13.7766C72.6745 13.9492 73.05 14.2368 73.3389 14.6107C73.6278 14.9846 73.7722 15.416 73.7722 15.9049V16.6815C73.7722 17.5155 73.4833 18.177 72.8767 18.666C72.2701 19.1549 71.4614 19.385 70.4504 19.385H66.2332V19.3562ZM70.0171 13.1726C70.3349 13.1726 70.5948 13.0576 70.797 12.8562C70.9992 12.6549 71.0859 12.3673 71.0859 12.0222V11.5045C71.0859 11.2169 70.9703 10.9868 70.7681 10.843C70.5659 10.6704 70.2771 10.5841 69.9305 10.5841H66.8398V13.1438H70.0171V13.1726ZM70.3637 17.5443C70.797 17.5443 71.1436 17.458 71.3747 17.2854C71.6058 17.1129 71.7213 16.854 71.7213 16.5377V15.8761C71.7213 15.5885 71.6058 15.3584 71.4036 15.1571C71.2014 14.9846 70.9126 14.8983 70.5659 14.8983H66.8109V17.5443H70.3637ZM83.1021 16.9115H79.1448L78.2205 19.385H76.0541L80.1847 8.80093H81.109C81.7733 8.80093 82.2066 9.1173 82.4377 9.72128L86.1928 19.385H84.0264L83.1021 16.9115ZM79.6936 15.1571H82.5244L81.1379 11.3607H81.109L79.6936 15.1571ZM91.9986 19.4713C90.901 19.4713 90.0345 19.1549 89.399 18.5509C88.7635 17.9182 88.4747 17.0554 88.4747 15.9624H90.5255C90.5255 16.4801 90.6699 16.8828 90.9299 17.1992C91.1899 17.4868 91.5654 17.6593 92.0275 17.6593H93.7029C94.1361 17.6593 94.5117 17.5731 94.7716 17.3717C95.0605 17.1704 95.176 16.9403 95.176 16.6239V16.1062C95.176 15.6173 94.8294 15.3009 94.0784 15.1859L91.3054 14.7257C90.41 14.5819 89.7167 14.2943 89.2546 13.8629C88.7924 13.4315 88.5613 12.885 88.5613 12.2235V11.3894C88.5613 10.843 88.7058 10.3828 88.9946 9.98013C89.2835 9.57748 89.6878 9.2611 90.2078 9.03101C90.7277 8.80093 91.3343 8.68588 92.0275 8.68588H93.7318C94.3961 8.68588 94.9738 8.82969 95.4649 9.08854C95.9559 9.34739 96.3603 9.75004 96.6203 10.239C96.9091 10.7279 97.0247 11.3031 97.0247 11.9359H95.0316C95.0316 11.5045 94.916 11.1593 94.685 10.9292C94.4539 10.6704 94.1361 10.5554 93.7606 10.5554H92.0564C91.6231 10.5554 91.3054 10.6416 91.0454 10.8142C90.7855 10.9868 90.6699 11.2456 90.6699 11.5332V11.9359C90.6699 12.4248 91.0166 12.7412 91.7098 12.885L94.4539 13.3739C95.3782 13.5465 96.0714 13.8341 96.5336 14.2368C97.0247 14.6394 97.2557 15.1571 97.2557 15.8186V16.8253C97.2557 17.3717 97.1113 17.8319 96.8225 18.2346C96.5336 18.6372 96.1003 18.9536 95.5804 19.1837C95.0605 19.4138 94.425 19.5288 93.7318 19.5288L91.9986 19.4713ZM102.137 19.3562C101.704 19.3562 101.357 19.2124 101.069 18.9536C100.809 18.6947 100.664 18.3496 100.664 17.9182V8.77217H108.694V10.5841H102.744V13.0288H108.261V14.8407H102.744V17.5443H108.694V19.3562H102.137Z" fill="#1F69E6"/>
<path d="M25.7366 11.4757C25.8521 11.3606 26.0832 11.4469 26.0832 11.6195V24.1881C26.0832 25.2235 25.39 25.9712 24.3212 25.9712H18.8331C18.4287 25.9712 18.082 25.6261 18.082 25.2235V17.573C18.082 17.3142 18.2265 17.0553 18.4576 16.9115C21.1727 15.4159 23.628 13.5752 25.7366 11.4757ZM15.9734 18.177C16.4645 17.9469 17.0422 18.3208 17.0422 18.8673V25.2522C17.0422 25.6549 16.6956 26 16.2912 26H9.79204C9.38764 26 9.04102 25.6549 9.04102 25.2522V21.1394C9.04102 20.7942 9.2721 20.5066 9.61872 20.4204C11.8429 19.8451 13.9804 19.0973 15.9734 18.177ZM7.10572 20.9668C7.56789 20.8805 8.00116 21.2257 8.00116 21.6858V25.2235C8.00116 25.6261 7.65454 25.9712 7.25015 25.9712H1.76199C0.751011 25.9712 0 25.2235 0 24.1881V22.3473C0 21.9447 0.317736 21.5996 0.751011 21.5996C2.91739 21.5708 5.05489 21.3407 7.10572 20.9668Z" fill="#A4B1C4"/>
<path d="M7.25015 0C7.65454 0 8.00116 0.345133 8.00116 0.776549V19.2699C8.00116 19.6438 7.74119 19.9602 7.39457 20.0465C5.25708 20.4779 3.03293 20.7367 0.751011 20.7655C0.346621 20.7943 0 20.4204 0 19.9889V1.81195C0 0.776549 0.751011 0 1.76199 0H7.25015Z" fill="#1F69E6"/>
<path d="M16.2912 0C16.6956 0 17.0422 0.345133 17.0422 0.776549V16.1637C17.0422 16.4513 16.8689 16.7389 16.6089 16.8827C14.5292 17.9469 12.305 18.8097 9.96534 19.4425C9.50318 19.5863 9.04102 19.1836 9.04102 18.6947V0.776549C9.04102 0.345133 9.38764 0 9.79203 0H16.2912Z" fill="#1F69E6"/>
<path d="M24.3212 0C25.4477 0 26.0832 0.776549 26.0832 1.81195V9.46239C26.0832 9.66372 25.9965 9.86504 25.8521 10.0088C23.9168 12.0509 21.6638 13.8628 19.2085 15.4159C18.7175 15.7323 18.082 15.3584 18.082 14.7257V0.776549C18.082 0.345133 18.4287 0 18.833 0H24.3212Z" fill="#1F69E6"/>
</svg>
