<svg id="Layer_1" data-name="Layer 1" xmlns="http://www.w3.org/2000/svg" viewBox="0 0 185.25 191.85"><defs><style>.cls-1{fill:#bcdcf7;}.cls-2{fill:#1f69e6;}.cls-3{fill:#2c2e3b;}</style></defs> <path class="cls-1" d="M65.13,51.76v-49A2.82,2.82,0,0,0,62.28,0H26.8A2.82,2.82,0,0,0,24,2.79V55.23A2.82,2.82,0,0,0,26.88,58a273.22,273.22,0,0,0,35.88-3.5A2.8,2.8,0,0,0,65.13,51.76Z"/><path class="cls-1" d="M124.17,34.07A266.79,266.79,0,0,0,160,14.39a2.77,2.77,0,0,0,1.26-2.32V2.79A2.82,2.82,0,0,0,158.44,0H123a2.82,2.82,0,0,0-2.85,2.79V31.54A2.85,2.85,0,0,0,124.17,34.07Z"/><path class="cls-1" d="M75.54,51.43A268.32,268.32,0,0,0,111.4,40.61a2.79,2.79,0,0,0,1.81-2.6V2.79A2.82,2.82,0,0,0,110.36,0H74.89A2.82,2.82,0,0,0,72,2.79V48.72A2.84,2.84,0,0,0,75.54,51.43Z"/><path class="cls-2" d="M24,67.56v67a2.82,2.82,0,0,0,2.85,2.79H62.28a2.82,2.82,0,0,0,2.85-2.79V64.3a2.82,2.82,0,0,0-3.28-2.75,283.64,283.64,0,0,1-35.11,3.23A2.82,2.82,0,0,0,24,67.56Z"/><path class="cls-2" d="M120.12,45.33v89.22a2.82,2.82,0,0,0,2.85,2.79h35.47a2.82,2.82,0,0,0,2.85-2.79V27.27a2.85,2.85,0,0,0-4.35-2.37,278.11,278.11,0,0,1-35.1,17.87A2.79,2.79,0,0,0,120.12,45.33Z"/><path class="cls-2" d="M72,61.43v73.12a2.82,2.82,0,0,0,2.85,2.79h35.47a2.82,2.82,0,0,0,2.85-2.79V51.38a2.84,2.84,0,0,0-3.82-2.62,278.09,278.09,0,0,1-35.11,9.94A2.8,2.8,0,0,0,72,61.43Z"/><path class="cls-3" d="M0,190.46V159.71a.64.64,0,0,1,.64-.64H22.41a.64.64,0,0,1,.64.64v4.55a.64.64,0,0,1-.64.64H6.68a.64.64,0,0,0-.64.64V173a.64.64,0,0,0,.64.64H22.41a.64.64,0,0,1,.64.64v4.32a.64.64,0,0,1-.64.64H6.68a.64.64,0,0,0-.64.64v10.6a.64.64,0,0,1-.64.64H.64A.64.64,0,0,1,0,190.46Z"/><rect class="cls-3" x="30.51" y="168.42" width="5.59" height="22.68" rx="0.66" ry="0.66"/><path class="cls-3" d="M61.5,191.1a.65.65,0,0,1-.65-.65V179.28c0-3-1.47-5.43-4.27-5.94a6,6,0,0,0-7,6v11.13a.65.65,0,0,1-.65.65H44.73a.65.65,0,0,1-.65-.65V169.11a.65.65,0,0,1,.65-.65h3.76a.65.65,0,0,1,.65.57l.15,1.24a.65.65,0,0,0,1.06.42,9.65,9.65,0,0,1,6.51-2.56c5.31,0,9.58,4,9.58,11.09v11.21a.65.65,0,0,1-.65.65Z"/><path class="cls-3" d="M79,159.62V170a.55.55,0,0,0,.92.4,10.41,10.41,0,0,1,6.5-2.47c6.6,0,11.5,4,11.5,11.82,0,7.42-5,11.82-11.64,11.82A8.5,8.5,0,0,1,79.79,189a.55.55,0,0,0-1,.3l-.15,1.29a.55.55,0,0,1-.55.49H74a.55.55,0,0,1-.55-.55V159.62a.55.55,0,0,1,.55-.55h4.49A.55.55,0,0,1,79,159.62Zm.37,20.16a6.48,6.48,0,1,0,13,0,6.23,6.23,0,0,0-6.41-6.6A6.45,6.45,0,0,0,79.36,179.78Z"/><path class="cls-3" d="M123.72,168.51h4.1a.65.65,0,0,1,.65.65v21.29a.65.65,0,0,1-.65.65h-4a.65.65,0,0,1-.65-.59l-.08-.93a.65.65,0,0,0-1.12-.39,9.53,9.53,0,0,1-6.36,2.6c-6.69,0-11.64-4.08-11.64-12s5.18-11.87,11.78-11.82a8.9,8.9,0,0,1,6.2,2.38.65.65,0,0,0,1.09-.43l0-.79A.65.65,0,0,1,123.72,168.51Zm-14.17,11.27a6.53,6.53,0,0,0,7.52,6.83c8-.81,8-12.84,0-13.62C113,172.6,109.55,175.16,109.55,179.78Z"/><path class="cls-3" d="M152.14,174a.64.64,0,0,1-.89.09,7.76,7.76,0,0,0-5.12-1.61c-2.66,0-4.12.82-4.12,2.24s1.33,2.29,4.22,2.47c4.26.27,9.67,1.24,9.67,7.24,0,4-3.25,7.42-9.71,7.42-3.44,0-6.87-.55-10.07-3.65a.64.64,0,0,1-.07-.82l2-2.92a.65.65,0,0,1,1-.11,13.06,13.06,0,0,0,7.26,2.65c2.11,0,4.08-1.05,4.08-2.7s-1.28-2.2-4.49-2.38c-4.26-.32-9.35-1.88-9.35-7s5.41-7.06,9.53-7.06c3.29,0,5.83.6,8.28,2.54a.65.65,0,0,1,.1.93Z"/><path class="cls-3" d="M168.23,181.8a.59.59,0,0,0-.57.76c.68,2.39,3,4.05,6.58,4.05a9.92,9.92,0,0,0,5.66-1.75.59.59,0,0,1,.79,0l2.75,2.71a.59.59,0,0,1,0,.86,14.22,14.22,0,0,1-9.26,3.23c-7.79,0-12.42-4.81-12.42-12,0-6.87,4.67-11.82,12-11.82s12.09,4.49,11.45,13.43a.59.59,0,0,1-.59.55Zm10.84-4.63a.59.59,0,0,0,.57-.75c-.64-2.43-2.8-3.64-5.72-3.64-2.73,0-5,1.2-6,3.59a.59.59,0,0,0,.55.81Z"/><path class="cls-2" d="M30.52,159.4v5.1a.38.38,0,0,0,.38.38h4.79a.38.38,0,0,0,.38-.38v-7.59a.38.38,0,0,0-.59-.33A37.22,37.22,0,0,1,30.76,159,.38.38,0,0,0,30.52,159.4Z"/></svg>