<svg width="25" height="12" viewBox="0 0 25 12" fill="none" xmlns="http://www.w3.org/2000/svg">
<path d="M12.5 0C6.19499 0 1.18101 5.14909 0.970841 5.37051C0.904305 5.44031 0.867188 5.53304 0.867188 5.62947C0.867187 5.7259 0.904305 5.81863 0.970841 5.88843C1.18101 6.10985 6.19499 11.2589 12.5 11.2589C18.805 11.2589 23.819 6.10985 24.0292 5.88843C24.0957 5.81863 24.1328 5.7259 24.1328 5.62947C24.1328 5.53304 24.0957 5.44031 24.0292 5.37051C23.819 5.14909 18.805 0 12.5 0ZM12.5 10.5083C7.30963 10.5083 2.88486 6.6728 1.77773 5.62947C2.88486 4.58239 7.30212 0.750596 12.5 0.750596C17.6979 0.750596 22.1151 4.58614 23.2223 5.62947C22.1151 6.67655 17.6979 10.5083 12.5 10.5083Z" fill="white"/>
<path d="M7.99658 5.62943C7.99658 6.52015 8.26071 7.39088 8.75557 8.13148C9.25043 8.87209 9.95379 9.44933 10.7767 9.79019C11.5996 10.1311 12.5052 10.2202 13.3788 10.0465C14.2524 9.8727 15.0548 9.44378 15.6847 8.81394C16.3145 8.18411 16.7434 7.38164 16.9172 6.50804C17.091 5.63443 17.0018 4.72891 16.6609 3.90599C16.3201 3.08307 15.7428 2.3797 15.0022 1.88484C14.2616 1.38999 13.3909 1.12585 12.5002 1.12585C11.3057 1.12585 10.1602 1.60034 9.31565 2.44492C8.47106 3.28951 7.99658 4.43501 7.99658 5.62943ZM16.2531 5.62943C16.2531 6.3717 16.033 7.0973 15.6206 7.71448C15.2083 8.33165 14.6221 8.81268 13.9364 9.09673C13.2506 9.38079 12.496 9.45511 11.768 9.3103C11.04 9.16549 10.3713 8.80805 9.8464 8.28319C9.32154 7.75833 8.9641 7.08961 8.81929 6.3616C8.67448 5.6336 8.7488 4.879 9.03286 4.19323C9.31691 3.50746 9.79794 2.92133 10.4151 2.50894C11.0323 2.09656 11.7579 1.87645 12.5002 1.87645C13.4955 1.87645 14.4501 2.27185 15.1539 2.97567C15.8577 3.67949 16.2531 4.63408 16.2531 5.62943Z" fill="white"/>
</svg>
