<svg width="25" height="15" viewBox="0 0 25 15" fill="none" xmlns="http://www.w3.org/2000/svg">
<path d="M12.5 2C6.19499 2 1.18101 7.14909 0.970841 7.37051C0.904305 7.44031 0.867188 7.53304 0.867188 7.62947C0.867187 7.7259 0.904305 7.81863 0.970841 7.88843C1.18101 8.10985 6.19499 13.2589 12.5 13.2589C18.805 13.2589 23.819 8.10985 24.0292 7.88843C24.0957 7.81863 24.1328 7.7259 24.1328 7.62947C24.1328 7.53304 24.0957 7.44031 24.0292 7.37051C23.819 7.14909 18.805 2 12.5 2ZM12.5 12.5083C7.30963 12.5083 2.88486 8.6728 1.77773 7.62947C2.88486 6.58239 7.30212 2.7506 12.5 2.7506C17.6979 2.7506 22.1151 6.58614 23.2223 7.62947C22.1151 8.67655 17.6979 12.5083 12.5 12.5083Z" fill="white"/>
<path d="M7.9964 7.62955C7.9964 8.52028 8.26053 9.391 8.75539 10.1316C9.25025 10.8722 9.95361 11.4495 10.7765 11.7903C11.5995 12.1312 12.505 12.2204 13.3786 12.0466C14.2522 11.8728 15.0546 11.4439 15.6845 10.8141C16.3143 10.1842 16.7432 9.38177 16.917 8.50816C17.0908 7.63455 17.0016 6.72903 16.6607 5.90611C16.3199 5.08319 15.7426 4.37983 15.002 3.88497C14.2614 3.39011 13.3907 3.12598 12.5 3.12598C11.3056 3.12598 10.1601 3.60046 9.31547 4.44504C8.47088 5.28963 7.9964 6.43513 7.9964 7.62955ZM16.253 7.62955C16.253 8.37182 16.0328 9.09742 15.6205 9.7146C15.2081 10.3318 14.6219 10.8128 13.9362 11.0969C13.2504 11.3809 12.4958 11.4552 11.7678 11.3104C11.0398 11.1656 10.3711 10.8082 9.84622 10.2833C9.32135 9.75845 8.96392 9.08973 8.81911 8.36172C8.6743 7.63372 8.74862 6.87912 9.03267 6.19335C9.31673 5.50758 9.79776 4.92145 10.4149 4.50906C11.0321 4.09668 11.7577 3.87657 12.5 3.87657C13.4953 3.87657 14.4499 4.27197 15.1537 4.9758C15.8576 5.67962 16.253 6.6342 16.253 7.62955Z" fill="white"/>
<path fill-rule="evenodd" clip-rule="evenodd" d="M21 0.999869L4.00002 14.9999L3.49146 14.3823L20.4915 0.382325L21 0.999869Z" fill="white"/>
</svg>
